<svg width="16" height="16" viewBox="0 0 16 16" fill="none" xmlns="http://www.w3.org/2000/svg">
<path d="M1.5 2C1.08333 2.02083 0.729167 2.16667 0.4375 2.4375C0.166667 2.72917 0.0208333 3.08333 0 3.5C0.0208333 4 0.21875 4.39583 0.59375 4.6875L7.40625 9.8125C7.80208 10.0625 8.19792 10.0625 8.59375 9.8125L15.4062 4.6875C15.7812 4.39583 15.9792 4 16 3.5C15.9792 3.08333 15.8333 2.72917 15.5625 2.4375C15.2708 2.16667 14.9167 2.02083 14.5 2H1.5ZM0 5.5V12C0.0208333 12.5625 0.21875 13.0312 0.59375 13.4062C0.96875 13.7812 1.4375 13.9792 2 14H14C14.5625 13.9792 15.0312 13.7812 15.4062 13.4062C15.7812 13.0312 15.9792 12.5625 16 12V5.5L9.1875 10.5938C8.83333 10.8646 8.4375 11 8 11C7.5625 11 7.16667 10.8646 6.8125 10.5938L0 5.5Z" fill="#757575"/>
</svg>
