<svg width="19" height="16" viewBox="0 0 19 16" fill="none" xmlns="http://www.w3.org/2000/svg">
<path d="M9.0625 1C7.79167 1.02083 6.65625 1.27083 5.65625 1.75C4.65625 2.22917 3.78125 2.82292 3.03125 3.53125C2.30208 4.21875 1.69792 4.92708 1.21875 5.65625C0.739583 6.38542 0.385417 7.04167 0.15625 7.625C0.0520833 7.875 0.0520833 8.125 0.15625 8.375C0.385417 8.95833 0.739583 9.61458 1.21875 10.3438C1.69792 11.0729 2.30208 11.7812 3.03125 12.4688C3.78125 13.1771 4.65625 13.7708 5.65625 14.25C6.65625 14.7292 7.79167 14.9792 9.0625 15C10.3333 14.9792 11.4688 14.7292 12.4688 14.25C13.4688 13.7708 14.3438 13.1771 15.0938 12.4688C15.8229 11.7812 16.4271 11.0729 16.9062 10.3438C17.3854 9.61458 17.75 8.95833 18 8.375C18.1042 8.125 18.1042 7.875 18 7.625C17.75 7.04167 17.3854 6.38542 16.9062 5.65625C16.4271 4.92708 15.8229 4.21875 15.0938 3.53125C14.3438 2.82292 13.4688 2.22917 12.4688 1.75C11.4688 1.27083 10.3333 1.02083 9.0625 1ZM4.5625 8C4.5625 7.1875 4.76042 6.4375 5.15625 5.75C5.55208 5.0625 6.10417 4.51042 6.8125 4.09375C7.52083 3.69792 8.27083 3.5 9.0625 3.5C9.85417 3.5 10.6042 3.69792 11.3125 4.09375C12.0208 4.51042 12.5729 5.0625 12.9688 5.75C13.3646 6.4375 13.5625 7.1875 13.5625 8C13.5625 8.8125 13.3646 9.5625 12.9688 10.25C12.5729 10.9375 12.0208 11.4896 11.3125 11.9062C10.6042 12.3021 9.85417 12.5 9.0625 12.5C8.27083 12.5 7.52083 12.3021 6.8125 11.9062C6.10417 11.4896 5.55208 10.9375 5.15625 10.25C4.76042 9.5625 4.5625 8.8125 4.5625 8ZM9.0625 6C9.04167 6.5625 8.84375 7.03125 8.46875 7.40625C8.09375 7.78125 7.625 7.97917 7.0625 8C6.83333 8 6.625 7.96875 6.4375 7.90625C6.22917 7.86458 6.10417 7.9375 6.0625 8.125C6.0625 8.33333 6.09375 8.55208 6.15625 8.78125C6.40625 9.59375 6.875 10.1979 7.5625 10.5938C8.25 10.9896 9.01042 11.0938 9.84375 10.9062C10.6562 10.6562 11.2604 10.1875 11.6562 9.5C12.0521 8.8125 12.1562 8.05208 11.9688 7.21875C11.7812 6.57292 11.4375 6.05208 10.9375 5.65625C10.4167 5.26042 9.83333 5.04167 9.1875 5C9 5.04167 8.92708 5.16667 8.96875 5.375C9.03125 5.5625 9.0625 5.77083 9.0625 6Z" fill="#757575"/>
</svg>
