<svg width="20" height="21" viewBox="0 0 20 21" fill="none" xmlns="http://www.w3.org/2000/svg">
<path d="M19.0625 10.7344C19.0104 13.5469 18.151 15.8125 16.4843 17.5312C14.7916 19.25 12.526 20.1354 9.68747 20.1875C7.8906 20.1615 6.26299 19.7188 4.80466 18.8594C3.34632 18 2.18747 16.8411 1.3281 15.3828C0.468721 13.9245 0.0260124 12.2969 -2.92968e-05 10.5C0.0260124 8.70312 0.468721 7.07552 1.3281 5.61719C2.18747 4.15885 3.34632 3 4.80466 2.14062C6.26299 1.28125 7.8906 0.838542 9.68747 0.8125C12.3177 0.864583 14.4791 1.71094 16.1718 3.35156L13.5547 5.89062C12.3307 4.79688 10.9635 4.30208 9.4531 4.40625C7.94268 4.48438 6.61455 5.05729 5.46872 6.125C4.34893 7.21875 3.74997 8.67708 3.67185 10.5C3.72393 12.2448 4.30987 13.6901 5.42966 14.8359C6.57549 15.9818 7.99476 16.5807 9.68747 16.6328C10.9635 16.6068 11.9922 16.3464 12.7734 15.8516C13.5547 15.3568 14.1406 14.7969 14.5312 14.1719C14.8958 13.5208 15.1172 12.9479 15.1953 12.4531H9.68747V9.09375H18.9062C19.0104 9.5625 19.0625 10.1094 19.0625 10.7344Z" fill="#212121"/>
</svg>
