<svg width="80" height="80" viewBox="0 0 80 80" fill="none" xmlns="http://www.w3.org/2000/svg">
<rect width="80" height="80" rx="16" fill="#1E88E5" fill-opacity="0.1"/>
<path d="M40 24.75C39.4375 24.75 38.875 24.8438 38.3125 25.0312L18.625 32.1328C17.9219 32.4609 17.5469 33 17.5 33.75C17.5469 34.5 17.9219 35.0391 18.625 35.3672L22.7031 36.8438C21.5312 38.6719 20.9219 40.7344 20.875 43.0312V45C20.7344 47.0625 20.2188 48.9609 19.3281 50.6953C18.8594 51.5859 18.3203 52.4531 17.7109 53.2969C17.4766 53.625 17.4297 53.9766 17.5703 54.3516C17.7109 54.7266 17.9688 54.9844 18.3438 55.125L22.8438 56.25C23.1719 56.2969 23.4766 56.25 23.7578 56.1094C23.9922 55.9219 24.1562 55.6641 24.25 55.3359C24.7188 52.2422 24.6719 49.7109 24.1094 47.7422C23.875 46.7109 23.5469 45.7266 23.125 44.7891V43.0312C23.1719 40.875 23.8281 38.9531 25.0938 37.2656C25.9844 36.1875 27.1328 35.3672 28.5391 34.8047L39.5781 30.4453C40.2344 30.2578 40.7266 30.4688 41.0547 31.0781C41.2422 31.7344 41.0312 32.2266 40.4219 32.5547L29.3828 36.8438C28.4922 37.2188 27.7422 37.7344 27.1328 38.3906L38.3125 42.4688C38.875 42.6562 39.4375 42.75 40 42.75C40.5625 42.75 41.125 42.6562 41.6875 42.4688L61.375 35.3672C62.0781 35.0391 62.4531 34.5 62.5 33.75C62.4531 33 62.0781 32.4609 61.375 32.1328L41.6875 25.0312C41.125 24.8438 40.5625 24.75 40 24.75ZM26.5 51.1875C26.5938 52.5 27.9062 53.6484 30.4375 54.6328C32.9688 55.6641 36.1562 56.2031 40 56.25C43.8438 56.2031 47.0312 55.6641 49.5625 54.6328C52.0938 53.6484 53.4062 52.5 53.5 51.1875L52.4453 40.9922L42.4609 44.5781C41.6641 44.8594 40.8438 45 40 45C39.1562 45 38.3594 44.8594 37.6094 44.5781L27.5547 40.9922L26.5 51.1875Z" fill="#1E88E5"/>
</svg>
