<svg width="256" height="256" viewBox="0 0 256 256" fill="none" xmlns="http://www.w3.org/2000/svg">
<rect x="32" y="32" width="192" height="192" rx="96" fill="#E53935" fill-opacity="0.1"/>
<path d="M150.5 121.25C150.406 127.812 148.531 133.578 144.875 138.547L162.734 156.266C163.578 157.203 164 158.281 164 159.5C164 160.719 163.578 161.797 162.734 162.734C161.797 163.578 160.719 164 159.5 164C158.281 164 157.203 163.578 156.266 162.734L138.547 144.875C133.578 148.531 127.812 150.406 121.25 150.5C113 150.312 106.109 147.453 100.578 141.922C95.0469 136.391 92.1875 129.5 92 121.25C92.1875 113 95.0469 106.109 100.578 100.578C106.109 95.0469 113 92.1875 121.25 92C129.5 92.1875 136.391 95.0469 141.922 100.578C147.453 106.109 150.312 113 150.5 121.25ZM121.25 141.5C124.906 141.5 128.281 140.609 131.375 138.828C134.469 137.047 136.953 134.562 138.828 131.375C140.609 128.188 141.5 124.812 141.5 121.25C141.5 117.688 140.609 114.312 138.828 111.125C136.953 107.938 134.469 105.453 131.375 103.672C128.281 101.891 124.906 101 121.25 101C117.594 101 114.219 101.891 111.125 103.672C108.031 105.453 105.547 107.938 103.672 111.125C101.891 114.312 101 117.688 101 121.25C101 124.812 101.891 128.188 103.672 131.375C105.547 134.562 108.031 137.047 111.125 138.828C114.219 140.609 117.594 141.5 121.25 141.5Z" fill="#E53935"/>
<rect x="144" y="144" width="96" height="96" rx="48" fill="#1E88E5" fill-opacity="0.1"/>
<path d="M181.863 180.207L178.875 186.125H191.062V178.625H184.383C183.25 178.664 182.41 179.191 181.863 180.207ZM192.938 186.125H205.125L202.137 180.207C201.59 179.191 200.75 178.664 199.617 178.625H192.938V186.125ZM205.125 188H178.875V201.125C178.914 202.18 179.285 203.059 179.988 203.762C180.691 204.465 181.57 204.836 182.625 204.875H201.375C202.43 204.836 203.309 204.465 204.012 203.762C204.715 203.059 205.086 202.18 205.125 201.125V188Z" fill="#1E88E5"/>
</svg>
