<svg width="256" height="288" viewBox="0 0 256 288" fill="none" xmlns="http://www.w3.org/2000/svg">
<rect x="32" y="32" width="192" height="192" rx="96" fill="#FB8C00" fill-opacity="0.1"/>
<path d="M114.5 92C115.812 92 116.891 92.4219 117.734 93.2656C118.578 94.1094 119 95.1875 119 96.5V101H137V96.5C137 95.1875 137.422 94.1094 138.266 93.2656C139.109 92.4219 140.188 92 141.5 92C142.812 92 143.891 92.4219 144.734 93.2656C145.578 94.1094 146 95.1875 146 96.5V101H152.75C154.625 101.094 156.219 101.75 157.531 102.969C158.75 104.281 159.406 105.875 159.5 107.75V114.5H96.5V107.75C96.5938 105.875 97.25 104.281 98.4688 102.969C99.7812 101.75 101.375 101.094 103.25 101H110V96.5C110 95.1875 110.422 94.1094 111.266 93.2656C112.109 92.4219 113.188 92 114.5 92ZM96.5 119H159.5V157.25C159.406 159.125 158.75 160.719 157.531 162.031C156.219 163.25 154.625 163.906 152.75 164H103.25C101.375 163.906 99.7812 163.25 98.4688 162.031C97.25 160.719 96.5938 159.125 96.5 157.25V119ZM105.5 130.25V134.75C105.594 136.156 106.344 136.906 107.75 137H112.25C113.656 136.906 114.406 136.156 114.5 134.75V130.25C114.406 128.844 113.656 128.094 112.25 128H107.75C106.344 128.094 105.594 128.844 105.5 130.25ZM123.5 130.25V134.75C123.594 136.156 124.344 136.906 125.75 137H130.25C131.656 136.906 132.406 136.156 132.5 134.75V130.25C132.406 128.844 131.656 128.094 130.25 128H125.75C124.344 128.094 123.594 128.844 123.5 130.25ZM143.75 128C142.344 128.094 141.594 128.844 141.5 130.25V134.75C141.594 136.156 142.344 136.906 143.75 137H148.25C149.656 136.906 150.406 136.156 150.5 134.75V130.25C150.406 128.844 149.656 128.094 148.25 128H143.75ZM105.5 148.25V152.75C105.594 154.156 106.344 154.906 107.75 155H112.25C113.656 154.906 114.406 154.156 114.5 152.75V148.25C114.406 146.844 113.656 146.094 112.25 146H107.75C106.344 146.094 105.594 146.844 105.5 148.25ZM125.75 146C124.344 146.094 123.594 146.844 123.5 148.25V152.75C123.594 154.156 124.344 154.906 125.75 155H130.25C131.656 154.906 132.406 154.156 132.5 152.75V148.25C132.406 146.844 131.656 146.094 130.25 146H125.75ZM141.5 148.25V152.75C141.594 154.156 142.344 154.906 143.75 155H148.25C149.656 154.906 150.406 154.156 150.5 152.75V148.25C150.406 146.844 149.656 146.094 148.25 146H143.75C142.344 146.094 141.594 146.844 141.5 148.25Z" fill="#FB8C00"/>
<rect x="144" y="144" width="96" height="96" rx="48" fill="#1E88E5" fill-opacity="0.1"/>
<path d="M192 176.75C191.453 176.75 191.004 176.926 190.652 177.277C190.301 177.629 190.125 178.078 190.125 178.625V179.738C187.938 180.207 186.16 181.281 184.793 182.961C183.387 184.641 182.664 186.633 182.625 188.938V190.051C182.586 192.863 181.648 195.344 179.812 197.492L179.344 198.02C178.836 198.605 178.738 199.27 179.051 200.012C179.402 200.715 179.969 201.086 180.75 201.125H203.25C204.031 201.086 204.598 200.715 204.949 200.012C205.262 199.27 205.164 198.605 204.656 198.02L204.246 197.492C202.371 195.383 201.414 192.902 201.375 190.051V188.938C201.336 186.633 200.613 184.641 199.207 182.961C197.84 181.281 196.062 180.207 193.875 179.738V178.625C193.875 178.078 193.699 177.629 193.348 177.277C192.996 176.926 192.547 176.75 192 176.75ZM194.637 205.637C195.379 204.895 195.75 204.016 195.75 203H192H188.25C188.25 204.016 188.621 204.895 189.363 205.637C190.105 206.379 190.984 206.75 192 206.75C193.016 206.75 193.895 206.379 194.637 205.637Z" fill="#1E88E5"/>
</svg>
