<svg width="208" height="208" viewBox="0 0 208 208" fill="none" xmlns="http://www.w3.org/2000/svg">
<rect width="192" height="192" rx="96" fill="#26A69A" fill-opacity="0.1"/>
<path d="M73.5 73.5C73.5938 70.9688 74.4844 68.8594 76.1719 67.1719C77.8594 65.4844 79.9688 64.5938 82.5 64.5H123C125.531 64.5938 127.641 65.4844 129.328 67.1719C131.016 68.8594 131.906 70.9688 132 73.5V118.5C131.906 121.031 131.016 123.141 129.328 124.828C127.641 126.516 125.531 127.406 123 127.5H71.25C68.0625 127.406 65.3906 126.328 63.2344 124.266C61.1719 122.109 60.0938 119.438 60 116.25V78C60 76.6875 60.4219 75.6094 61.2656 74.7656C62.1094 73.9219 63.1875 73.5 64.5 73.5C65.8125 73.5 66.8906 73.9219 67.7344 74.7656C68.5781 75.6094 69 76.6875 69 78V116.25C69.0938 117.656 69.8438 118.406 71.25 118.5C72.6562 118.406 73.4062 117.656 73.5 116.25V73.5ZM82.5 76.875V88.125C82.6875 90.1875 83.8125 91.3125 85.875 91.5H101.625C103.688 91.3125 104.812 90.1875 105 88.125V76.875C104.812 74.8125 103.688 73.6875 101.625 73.5H85.875C83.8125 73.6875 82.6875 74.8125 82.5 76.875ZM111.75 75.75C111.844 77.1562 112.594 77.9062 114 78H120.75C122.156 77.9062 122.906 77.1562 123 75.75C122.906 74.3438 122.156 73.5938 120.75 73.5H114C112.594 73.5938 111.844 74.3438 111.75 75.75ZM111.75 89.25C111.844 90.6562 112.594 91.4062 114 91.5H120.75C122.156 91.4062 122.906 90.6562 123 89.25C122.906 87.8438 122.156 87.0938 120.75 87H114C112.594 87.0938 111.844 87.8438 111.75 89.25ZM82.5 102.75C82.5938 104.156 83.3438 104.906 84.75 105H120.75C122.156 104.906 122.906 104.156 123 102.75C122.906 101.344 122.156 100.594 120.75 100.5H84.75C83.3438 100.594 82.5938 101.344 82.5 102.75ZM82.5 116.25C82.5938 117.656 83.3438 118.406 84.75 118.5H120.75C122.156 118.406 122.906 117.656 123 116.25C122.906 114.844 122.156 114.094 120.75 114H84.75C83.3438 114.094 82.5938 114.844 82.5 116.25Z" fill="#26A69A"/>
<rect x="112" y="112" width="96" height="96" rx="48" fill="#1E88E5" fill-opacity="0.1"/>
<path d="M166.562 144.75H153.438C152.656 144.789 151.992 145.062 151.445 145.57C150.938 146.117 150.684 146.781 150.684 147.562C150.684 147.875 150.703 148.188 150.742 148.5H144.531C143.672 148.578 143.203 149.047 143.125 149.906C143.164 152.602 143.594 154.926 144.414 156.879C145.273 158.793 146.387 160.395 147.754 161.684C149.043 162.934 150.41 163.91 151.855 164.613C153.301 165.316 154.629 165.824 155.84 166.137C156.504 166.332 157.051 166.664 157.48 167.133C157.91 167.641 158.125 168.188 158.125 168.773C158.125 169.398 157.91 169.926 157.48 170.355C157.051 170.785 156.523 171 155.898 171H154.375C153.828 171 153.379 171.176 153.027 171.527C152.676 171.879 152.5 172.328 152.5 172.875C152.5 173.422 152.676 173.871 153.027 174.223C153.379 174.574 153.828 174.75 154.375 174.75H165.625C166.172 174.75 166.621 174.574 166.973 174.223C167.324 173.871 167.5 173.422 167.5 172.875C167.5 172.328 167.324 171.879 166.973 171.527C166.621 171.176 166.172 171 165.625 171H164.102C163.477 171 162.949 170.785 162.52 170.355C162.09 169.926 161.875 169.398 161.875 168.773C161.875 168.188 162.09 167.641 162.52 167.133C162.949 166.664 163.496 166.332 164.16 166.137C165.371 165.824 166.699 165.316 168.145 164.613C169.59 163.91 170.977 162.934 172.305 161.684C173.633 160.395 174.727 158.793 175.586 156.879C176.406 154.926 176.836 152.602 176.875 149.906C176.797 149.047 176.328 148.578 175.469 148.5H169.258C169.297 148.188 169.316 147.875 169.316 147.562C169.316 146.781 169.062 146.117 168.555 145.57C168.008 145.062 167.344 144.789 166.562 144.75ZM145.996 151.312H150.918C151.191 153.93 151.602 156.156 152.148 157.992C152.695 159.828 153.301 161.332 153.965 162.504C152.48 161.879 151.055 160.922 149.688 159.633C148.75 158.734 147.93 157.602 147.227 156.234C146.562 154.867 146.152 153.227 145.996 151.312ZM170.312 159.633C168.945 160.922 167.52 161.879 166.035 162.504C166.699 161.332 167.305 159.828 167.852 157.992C168.398 156.156 168.809 153.93 169.082 151.312H174.004C173.848 153.227 173.438 154.867 172.773 156.234C172.109 157.602 171.289 158.734 170.312 159.633Z" fill="#1E88E5"/>
</svg>
